<svg width="25" height="25" viewBox="0 0 25 25" fill="none" xmlns="http://www.w3.org/2000/svg">
<g clip-path="url(#clip0_3_2777)">
<g clip-path="url(#clip1_3_2777)">
<path d="M12.75 24.1406C19.3774 24.1406 24.75 18.768 24.75 12.1406C24.75 5.51321 19.3774 0.140625 12.75 0.140625C6.12258 0.140625 0.75 5.51321 0.75 12.1406C0.75 18.768 6.12258 24.1406 12.75 24.1406Z" fill="url(#paint0_linear_3_2777)"/>
<path d="M18.0008 16.9206L13.9418 7.11157C13.8719 6.89555 13.7364 6.70671 13.5541 6.57137C13.3718 6.43603 13.1518 6.36095 12.9248 6.35657H12.5658C12.3388 6.36095 12.1188 6.43603 11.9365 6.57137C11.7542 6.70671 11.6187 6.89555 11.5488 7.11157L9.78278 11.3856H8.44678C8.25446 11.3864 8.0702 11.4629 7.93393 11.5986C7.79766 11.7343 7.72036 11.9183 7.71878 12.1106V12.1206C7.72036 12.3129 7.79766 12.4968 7.93393 12.6325C8.0702 12.7682 8.25446 12.8448 8.44678 12.8456H9.16478L7.47978 16.9206C7.44791 17.0098 7.43101 17.1038 7.42978 17.1986C7.42193 17.4001 7.49379 17.5966 7.62978 17.7456C7.69956 17.8168 7.78374 17.8723 7.8767 17.9083C7.96965 17.9444 8.06924 17.9601 8.16878 17.9546C8.31946 17.9527 8.46584 17.9041 8.58778 17.8156C8.71538 17.721 8.81521 17.5939 8.87678 17.4476L10.7298 12.8466H12.0168C12.2091 12.8458 12.3934 12.7692 12.5296 12.6335C12.6659 12.4978 12.7432 12.3139 12.7448 12.1216V12.1016C12.7432 11.9093 12.6659 11.7253 12.5296 11.5896C12.3934 11.4539 12.2091 11.3774 12.0168 11.3766H11.3298L12.7448 7.84757L16.6038 17.4476C16.6654 17.5939 16.7652 17.721 16.8928 17.8156C17.0147 17.9041 17.1611 17.9527 17.3118 17.9546C17.4113 17.9601 17.5109 17.9444 17.6039 17.9083C17.6968 17.8723 17.781 17.8168 17.8508 17.7456C17.9868 17.5966 18.0586 17.4001 18.0508 17.1986C18.0545 17.1034 18.0374 17.0085 18.0008 16.9206Z" fill="white"/>
</g>
</g>
<defs>
<linearGradient id="paint0_linear_3_2777" x1="22.518" y1="5.58862" x2="4.662" y2="20.6126" gradientUnits="userSpaceOnUse">
<stop stop-color="#B6509E"/>
<stop offset="1" stop-color="#2EBAC6"/>
</linearGradient>
<clipPath id="clip0_3_2777">
<rect x="0.75" y="0.140625" width="24" height="24" rx="12" fill="white"/>
</clipPath>
<clipPath id="clip1_3_2777">
<rect width="24" height="24" fill="white" transform="translate(0.75 0.140625)"/>
</clipPath>
</defs>
</svg>
