<svg width="25" height="24" viewBox="0 0 25 24" fill="none" xmlns="http://www.w3.org/2000/svg">
<path d="M7.41874 12C7.41874 12.6365 7.16589 13.2469 6.7158 13.697C6.26571 14.1471 5.65526 14.4 5.01874 14.4C4.38222 14.4 3.77177 14.1471 3.32169 13.697C2.8716 13.2469 2.61874 12.6365 2.61874 12C2.61874 11.3635 2.8716 10.753 3.32169 10.3029C3.77177 9.85283 4.38222 9.59998 5.01874 9.59998C5.65526 9.59998 6.26571 9.85283 6.7158 10.3029C7.16589 10.753 7.41874 11.3635 7.41874 12ZM14.6187 12C14.6187 12.6365 14.3659 13.2469 13.9158 13.697C13.4657 14.1471 12.8553 14.4 12.2187 14.4C11.5822 14.4 10.9718 14.1471 10.5217 13.697C10.0716 13.2469 9.81874 12.6365 9.81874 12C9.81874 11.3635 10.0716 10.753 10.5217 10.3029C10.9718 9.85283 11.5822 9.59998 12.2187 9.59998C12.8553 9.59998 13.4657 9.85283 13.9158 10.3029C14.3659 10.753 14.6187 11.3635 14.6187 12ZM19.4187 14.4C20.0553 14.4 20.6657 14.1471 21.1158 13.697C21.5659 13.2469 21.8187 12.6365 21.8187 12C21.8187 11.3635 21.5659 10.753 21.1158 10.3029C20.6657 9.85283 20.0553 9.59998 19.4187 9.59998C18.7822 9.59998 18.1718 9.85283 17.7217 10.3029C17.2716 10.753 17.0187 11.3635 17.0187 12C17.0187 12.6365 17.2716 13.2469 17.7217 13.697C18.1718 14.1471 18.7822 14.4 19.4187 14.4Z" fill="#F1F1F3"/>
</svg>
