<svg width="45" height="47" viewBox="0 0 45 47" fill="none" xmlns="http://www.w3.org/2000/svg">
<g filter="url(#filter0_dd_3_2759)">
<rect x="1.60938" y="1.375" width="42" height="42" rx="12" fill="#383D51" shape-rendering="crispEdges"/>
<g clip-path="url(#clip0_3_2759)">
<path d="M15.5385 29.375C14.6111 28.4577 13.8743 27.3661 13.3705 26.163C12.8684 24.9632 12.6099 23.6756 12.6099 22.375C12.6099 21.0744 12.8684 19.7868 13.3705 18.587C13.8746 17.3838 14.6118 16.2922 15.5395 15.375M29.6795 15.375C30.6067 16.2923 31.3435 17.3839 31.8475 18.587C32.3495 19.7868 32.608 21.0744 32.608 22.375C32.608 23.6756 32.3495 24.9632 31.8475 26.163C31.3435 27.3661 30.6067 28.4577 29.6795 29.375M18.6795 26.263C18.1651 25.7545 17.7566 25.1491 17.4777 24.4817C17.1988 23.8143 17.0549 23.0983 17.0545 22.375C17.0545 20.917 17.6395 19.518 18.6805 18.487M26.5385 18.487C27.053 18.9954 27.4617 19.6008 27.7408 20.2682C28.0199 20.9356 28.1639 21.6516 28.1645 22.375C28.1639 23.0984 28.0199 23.8144 27.7408 24.4818C27.4617 25.1492 27.053 25.7546 26.5385 26.263M23.7195 22.375C23.7195 22.667 23.6025 22.946 23.3945 23.153C23.1853 23.3601 22.9028 23.4763 22.6085 23.4763C22.3141 23.4763 22.0316 23.3601 21.8225 23.153C21.7197 23.0512 21.6381 22.93 21.5824 22.7965C21.5267 22.6629 21.498 22.5197 21.498 22.375C21.498 22.2303 21.5267 22.0871 21.5824 21.9535C21.6381 21.82 21.7197 21.6988 21.8225 21.597C22.0316 21.3899 22.3141 21.2737 22.6085 21.2737C22.9028 21.2737 23.1853 21.3899 23.3945 21.597C23.6025 21.803 23.7195 22.083 23.7195 22.375Z" stroke="#A5A8B6" stroke-width="1.5" stroke-linecap="round" stroke-linejoin="round"/>
</g>
<rect x="2.10938" y="1.875" width="41" height="41" rx="11.5" stroke="#EBEBED" stroke-opacity="0.12" shape-rendering="crispEdges"/>
</g>
<defs>
<filter id="filter0_dd_3_2759" x="0.609375" y="0.375" width="44" height="46" filterUnits="userSpaceOnUse" color-interpolation-filters="sRGB">
<feFlood flood-opacity="0" result="BackgroundImageFix"/>
<feColorMatrix in="SourceAlpha" type="matrix" values="0 0 0 0 0 0 0 0 0 0 0 0 0 0 0 0 0 0 127 0" result="hardAlpha"/>
<feOffset/>
<feGaussianBlur stdDeviation="0.5"/>
<feComposite in2="hardAlpha" operator="out"/>
<feColorMatrix type="matrix" values="0 0 0 0 0 0 0 0 0 0 0 0 0 0 0 0 0 0 0.25 0"/>
<feBlend mode="normal" in2="BackgroundImageFix" result="effect1_dropShadow_3_2759"/>
<feColorMatrix in="SourceAlpha" type="matrix" values="0 0 0 0 0 0 0 0 0 0 0 0 0 0 0 0 0 0 127 0" result="hardAlpha"/>
<feOffset dy="2"/>
<feGaussianBlur stdDeviation="0.5"/>
<feComposite in2="hardAlpha" operator="out"/>
<feColorMatrix type="matrix" values="0 0 0 0 0 0 0 0 0 0 0 0 0 0 0 0 0 0 0.05 0"/>
<feBlend mode="normal" in2="effect1_dropShadow_3_2759" result="effect2_dropShadow_3_2759"/>
<feBlend mode="normal" in="SourceGraphic" in2="effect2_dropShadow_3_2759" result="shape"/>
</filter>
<clipPath id="clip0_3_2759">
<rect width="22" height="16" fill="white" transform="translate(11.6094 14.375)"/>
</clipPath>
</defs>
</svg>
