<svg width="44" height="47" viewBox="0 0 44 47" fill="none" xmlns="http://www.w3.org/2000/svg">
<g filter="url(#filter0_dd_3_2749)">
<rect x="1" y="1.375" width="42" height="42" rx="12" fill="#383D51" shape-rendering="crispEdges"/>
<g clip-path="url(#clip0_3_2749)">
<path d="M18.667 22.62L20.889 24.883L25.333 20.358M31.576 15.814C29.8314 15.9062 28.0859 15.6495 26.4416 15.059C24.7974 14.4685 23.2874 13.556 22 12.375C20.7127 13.5562 19.2027 14.4689 17.5585 15.0595C15.9142 15.6502 14.1687 15.907 12.424 15.815C12.1415 16.9296 11.9991 18.0751 12 19.225C12 25.552 16.249 30.868 22 32.375C27.751 30.868 32 25.553 32 19.226C32 18.048 31.852 16.905 31.576 15.814Z" stroke="#A5A8B6" stroke-width="1.5" stroke-linecap="round" stroke-linejoin="round"/>
</g>
<rect x="1.5" y="1.875" width="41" height="41" rx="11.5" stroke="#EBEBED" stroke-opacity="0.12" shape-rendering="crispEdges"/>
</g>
<defs>
<filter id="filter0_dd_3_2749" x="0" y="0.375" width="44" height="46" filterUnits="userSpaceOnUse" color-interpolation-filters="sRGB">
<feFlood flood-opacity="0" result="BackgroundImageFix"/>
<feColorMatrix in="SourceAlpha" type="matrix" values="0 0 0 0 0 0 0 0 0 0 0 0 0 0 0 0 0 0 127 0" result="hardAlpha"/>
<feOffset/>
<feGaussianBlur stdDeviation="0.5"/>
<feComposite in2="hardAlpha" operator="out"/>
<feColorMatrix type="matrix" values="0 0 0 0 0 0 0 0 0 0 0 0 0 0 0 0 0 0 0.25 0"/>
<feBlend mode="normal" in2="BackgroundImageFix" result="effect1_dropShadow_3_2749"/>
<feColorMatrix in="SourceAlpha" type="matrix" values="0 0 0 0 0 0 0 0 0 0 0 0 0 0 0 0 0 0 127 0" result="hardAlpha"/>
<feOffset dy="2"/>
<feGaussianBlur stdDeviation="0.5"/>
<feComposite in2="hardAlpha" operator="out"/>
<feColorMatrix type="matrix" values="0 0 0 0 0 0 0 0 0 0 0 0 0 0 0 0 0 0 0.05 0"/>
<feBlend mode="normal" in2="effect1_dropShadow_3_2749" result="effect2_dropShadow_3_2749"/>
<feBlend mode="normal" in="SourceGraphic" in2="effect2_dropShadow_3_2749" result="shape"/>
</filter>
<clipPath id="clip0_3_2749">
<rect width="22" height="22" fill="white" transform="translate(11 11.375)"/>
</clipPath>
</defs>
</svg>
