<svg width="38" height="36" viewBox="0 0 38 36" fill="none" xmlns="http://www.w3.org/2000/svg">
<rect width="38" height="36" rx="4" fill="#383D51"/>
<g clip-path="url(#clip0_2_110)">
<path fill-rule="evenodd" clip-rule="evenodd" d="M20.49 11.17C20.11 9.61 17.89 9.61 17.51 11.17C17.4533 11.4044 17.342 11.6221 17.1852 11.8054C17.0285 11.9887 16.8306 12.1324 16.6078 12.2248C16.3851 12.3172 16.1436 12.3556 15.9031 12.3371C15.6627 12.3185 15.43 12.2435 15.224 12.118C13.852 11.282 12.282 12.852 13.118 14.224C13.658 15.11 13.179 16.266 12.171 16.511C10.61 16.89 10.61 19.111 12.171 19.489C12.4055 19.5458 12.6232 19.6572 12.8065 19.8141C12.9898 19.971 13.1334 20.1689 13.2257 20.3918C13.318 20.6147 13.3564 20.8563 13.3377 21.0968C13.3189 21.3373 13.2437 21.5701 13.118 21.776C12.282 23.148 13.852 24.718 15.224 23.882C15.4299 23.7563 15.6626 23.6811 15.9032 23.6623C16.1437 23.6436 16.3853 23.682 16.6082 23.7743C16.8311 23.8666 17.029 24.0102 17.1859 24.1935C17.3428 24.3768 17.4542 24.5945 17.511 24.829C17.89 26.39 20.111 26.39 20.489 24.829C20.546 24.5946 20.6575 24.377 20.8144 24.1939C20.9713 24.0107 21.1692 23.8672 21.3921 23.7749C21.6149 23.6826 21.8564 23.6442 22.0969 23.6628C22.3373 23.6815 22.57 23.7565 22.776 23.882C24.148 24.718 25.718 23.148 24.882 21.776C24.7565 21.57 24.6815 21.3373 24.6628 21.0969C24.6442 20.8564 24.6826 20.6149 24.7749 20.3921C24.8672 20.1692 25.0107 19.9713 25.1939 19.8144C25.377 19.6575 25.5946 19.546 25.829 19.489C27.39 19.11 27.39 16.889 25.829 16.511C25.5945 16.4542 25.3768 16.3428 25.1935 16.1859C25.0102 16.029 24.8666 15.8311 24.7743 15.6082C24.682 15.3853 24.6436 15.1437 24.6623 14.9032C24.681 14.6627 24.7563 14.4299 24.882 14.224C25.718 12.852 24.148 11.282 22.776 12.118C22.5701 12.2437 22.3373 12.3189 22.0968 12.3377C21.8563 12.3564 21.6147 12.318 21.3918 12.2257C21.1689 12.1334 20.971 11.9898 20.8141 11.8065C20.6572 11.6232 20.5458 11.4055 20.489 11.171L20.49 11.17ZM19 21C19.7956 21 20.5587 20.6839 21.1213 20.1213C21.6839 19.5587 22 18.7956 22 18C22 17.2044 21.6839 16.4413 21.1213 15.8787C20.5587 15.3161 19.7956 15 19 15C18.2043 15 17.4413 15.3161 16.8787 15.8787C16.3161 16.4413 16 17.2044 16 18C16 18.7956 16.3161 19.5587 16.8787 20.1213C17.4413 20.6839 18.2043 21 19 21Z" fill="#F1F1F3"/>
</g>
<rect x="0.5" y="0.5" width="37" height="35" rx="3.5" stroke="#EBEBED" stroke-opacity="0.12"/>
<defs>
<clipPath id="clip0_2_110">
<rect width="20" height="20" fill="white" transform="translate(9 8)"/>
</clipPath>
</defs>
</svg>
