<svg width="20" height="28" viewBox="0 0 20 28" fill="none" xmlns="http://www.w3.org/2000/svg">
<path d="M5.76901 6.16836L1.71123 10.2443C0.6885 11.2754 0.114258 12.6717 0.114258 14.1272C0.114258 15.5827 0.6885 16.979 1.71123 18.0101L5.76901 22.0871C6.79655 23.1126 8.18619 23.6881 9.63462 23.6881C11.0831 23.6881 12.4727 23.1126 13.5002 22.0871L17.558 18.0101C18.5794 16.9782 19.1527 15.5823 19.1527 14.1272C19.1527 12.6721 18.5794 11.2761 17.558 10.2443L13.5002 6.16836C12.473 5.14241 11.0832 4.56653 9.63462 4.56653C8.18601 4.56653 6.79627 5.14241 5.76901 6.16836ZM10.125 7.45859L16.2735 13.6335C16.403 13.7645 16.4757 13.9415 16.4757 14.1261C16.4757 14.3106 16.403 14.4877 16.2735 14.6187L10.125 20.7958C9.99395 20.9258 9.81716 20.9987 9.63297 20.9987C9.44877 20.9987 9.27199 20.9258 9.14093 20.7958L2.99571 14.6198C2.86622 14.4888 2.79354 14.3118 2.79354 14.1272C2.79354 13.9426 2.86622 13.7656 2.99571 13.6346L9.14093 7.45859C9.27199 7.32858 9.44877 7.25568 9.63297 7.25568C9.81716 7.25568 9.99395 7.32858 10.125 7.45859Z" fill="#F47A2E"/>
<path d="M6.4375 5.56272L11.0122 0.96759C11.1111 0.868131 11.2287 0.789234 11.358 0.735405C11.4873 0.681576 11.626 0.65387 11.766 0.65387C11.906 0.65387 12.0446 0.681576 12.1739 0.735405C12.3033 0.789234 12.4208 0.868131 12.5198 0.96759C12.6188 1.06689 12.6974 1.18482 12.751 1.31464C12.8047 1.44447 12.8323 1.58364 12.8323 1.7242V5.63816" fill="#F47A2E"/>
<path d="M13.7971 21.7199L8.39081 27.156C8.27408 27.2733 8.13548 27.3664 7.98293 27.4299C7.83037 27.4934 7.66686 27.5261 7.50172 27.5261C7.33658 27.5261 7.17306 27.4934 7.02051 27.4299C6.86795 27.3664 6.72935 27.2733 6.61263 27.156C6.48778 27.0307 6.39061 26.8804 6.32743 26.7148C6.26425 26.5493 6.23649 26.3723 6.24595 26.1952L6.44033 22.6152" fill="#F47A2E"/>
</svg>
