<svg width="20" height="27" viewBox="0 0 20 27" fill="none" xmlns="http://www.w3.org/2000/svg">
<path d="M5.65476 5.51443L1.59697 9.59036C0.574242 10.6215 0 12.0177 0 13.4733C0 14.9288 0.574242 16.325 1.59697 17.3562L5.65476 21.4332C6.6823 22.4586 8.07193 23.0341 9.52037 23.0341C10.9688 23.0341 12.3584 22.4586 13.386 21.4332L17.4438 17.3562C18.4651 16.3243 19.0385 14.9284 19.0385 13.4733C19.0385 12.0182 18.4651 10.6222 17.4438 9.59036L13.386 5.51443C12.3587 4.48848 10.969 3.9126 9.52037 3.9126C8.07175 3.9126 6.68201 4.48848 5.65476 5.51443ZM10.0107 6.80466L16.1593 12.9796C16.2888 13.1105 16.3614 13.2876 16.3614 13.4722C16.3614 13.6567 16.2888 13.8338 16.1593 13.9647L10.0107 20.1419C9.87969 20.2719 9.70291 20.3448 9.51871 20.3448C9.33451 20.3448 9.15773 20.2719 9.02667 20.1419L2.88146 13.9658C2.75196 13.8349 2.67928 13.6578 2.67928 13.4733C2.67928 13.2887 2.75196 13.1116 2.88146 12.9807L9.02667 6.80466C9.15773 6.67465 9.33451 6.60175 9.51871 6.60175C9.70291 6.60175 9.87969 6.67465 10.0107 6.80466Z" fill="white"/>
<path d="M6.32324 4.90885L10.8979 0.31372C10.9969 0.214262 11.1144 0.135364 11.2437 0.081535C11.3731 0.0277059 11.5117 0 11.6517 0C11.7917 0 11.9303 0.0277059 12.0597 0.081535C12.189 0.135364 12.3065 0.214262 12.4055 0.31372C12.5045 0.413016 12.5831 0.530948 12.6368 0.660774C12.6904 0.7906 12.718 0.929772 12.7181 1.07033V4.98429" fill="white"/>
<path d="M13.6839 21.066L8.27753 26.5021C8.1608 26.6194 8.0222 26.7125 7.86965 26.776C7.71709 26.8395 7.55357 26.8722 7.38844 26.8722C7.2233 26.8722 7.05978 26.8395 6.90723 26.776C6.75467 26.7125 6.61607 26.6194 6.49935 26.5021C6.3745 26.3768 6.27732 26.2265 6.21415 26.061C6.15097 25.8954 6.12321 25.7184 6.13267 25.5414L6.32705 21.9613" fill="white"/>
</svg>
